<svg width="17" height="18" viewBox="0 0 17 18" fill="none" xmlns="http://www.w3.org/2000/svg">
<path d="M15.9509 7.51238L9.3884 1.32066C9.38519 1.31786 9.38217 1.31484 9.37938 1.31163C9.13776 1.0919 8.8229 0.970139 8.49631 0.970139C8.16972 0.970139 7.85486 1.0919 7.61324 1.31163L7.60422 1.32066L1.0491 7.51238C0.915389 7.63533 0.808655 7.7847 0.735653 7.95104C0.662652 8.11738 0.624972 8.29705 0.625 8.4787V16.0625C0.625 16.4106 0.763281 16.7444 1.00942 16.9906C1.25556 17.2367 1.5894 17.375 1.9375 17.375H5.875C6.2231 17.375 6.55694 17.2367 6.80308 16.9906C7.04922 16.7444 7.1875 16.4106 7.1875 16.0625V12.125H9.8125V16.0625C9.8125 16.4106 9.95078 16.7444 10.1969 16.9906C10.4431 17.2367 10.7769 17.375 11.125 17.375H15.0625C15.4106 17.375 15.7444 17.2367 15.9906 16.9906C16.2367 16.7444 16.375 16.4106 16.375 16.0625V8.4787C16.375 8.29705 16.3373 8.11738 16.2643 7.95104C16.1913 7.7847 16.0846 7.63533 15.9509 7.51238ZM15.0625 16.0625H11.125V12.125C11.125 11.7769 10.9867 11.4431 10.7406 11.1969C10.4944 10.9508 10.1606 10.8125 9.8125 10.8125H7.1875C6.8394 10.8125 6.50556 10.9508 6.25942 11.1969C6.01328 11.4431 5.875 11.7769 5.875 12.125V16.0625H1.9375V8.4787L1.94652 8.4705L8.5 2.28124L15.0543 8.46886L15.0633 8.47706L15.0625 16.0625Z" fill="#222427"/>
</svg>
