<svg width="17" height="20" viewBox="0 0 17 20" fill="none" xmlns="http://www.w3.org/2000/svg">
<path d="M16.5 1V16C16.5 16.1989 16.421 16.3897 16.2803 16.5303C16.1397 16.671 15.9489 16.75 15.75 16.75H3C2.60218 16.75 2.22064 16.908 1.93934 17.1893C1.65804 17.4706 1.5 17.8522 1.5 18.25H14.25C14.4489 18.25 14.6397 18.329 14.7803 18.4697C14.921 18.6103 15 18.8011 15 19C15 19.1989 14.921 19.3897 14.7803 19.5303C14.6397 19.671 14.4489 19.75 14.25 19.75H0.75C0.551088 19.75 0.360322 19.671 0.21967 19.5303C0.0790178 19.3897 0 19.1989 0 19V3.25C0 2.45435 0.31607 1.69129 0.87868 1.12868C1.44129 0.56607 2.20435 0.25 3 0.25H15.75C15.9489 0.25 16.1397 0.329018 16.2803 0.46967C16.421 0.610322 16.5 0.801088 16.5 1Z" fill="black"/>
</svg>
