<svg width="64" height="64" viewBox="0 0 64 64" fill="none" xmlns="http://www.w3.org/2000/svg">
<g clip-path="url(#clip0_258_2945)">
<path d="M23.3722 4.70801C23.4782 4.70718 23.5841 4.70635 23.6933 4.70549C23.9162 4.70423 24.1392 4.70364 24.3621 4.70368C24.7031 4.70313 25.0439 4.69858 25.3849 4.69385C25.602 4.69312 25.8192 4.69262 26.0363 4.69239C26.1888 4.68969 26.1888 4.68969 26.3445 4.68694C26.7997 4.69063 27.0672 4.70618 27.4359 4.98505C27.6634 5.3035 27.7408 5.4823 27.7501 5.87501C27.4655 6.57982 27.4655 6.57982 27.1251 6.75001C26.935 6.76047 26.7443 6.76342 26.5539 6.76221C26.4419 6.76181 26.3299 6.76141 26.2145 6.76099C26.0974 6.75994 25.9802 6.7589 25.8595 6.75782C25.7414 6.75725 25.6233 6.75669 25.5016 6.75611C25.2094 6.75463 24.9173 6.75258 24.6251 6.75001C24.6335 7.63328 24.6447 8.51648 24.6579 9.39969C24.6621 9.70026 24.6656 10.0008 24.6684 10.3014C24.6726 10.7331 24.6792 11.1646 24.6862 11.5962C24.687 11.731 24.6878 11.8657 24.6886 12.0046C24.6911 12.1297 24.6935 12.2548 24.6961 12.3837C24.6975 12.4939 24.6989 12.6041 24.7003 12.7176C24.7619 13.0665 24.8492 13.1581 25.1251 13.375C25.3914 13.4305 25.3914 13.4305 25.6906 13.4209C25.8643 13.422 25.8643 13.422 26.0416 13.4231C26.2319 13.4213 26.2319 13.4213 26.426 13.4196C26.6266 13.4199 26.6266 13.4199 26.8313 13.4203C27.2745 13.4207 27.7176 13.4184 28.1608 13.416C28.4679 13.4156 28.7751 13.4154 29.0822 13.4153C29.7263 13.4147 30.3703 13.4129 31.0143 13.4102C31.8415 13.4066 32.6686 13.4053 33.4957 13.4047C34.13 13.4042 34.7642 13.403 35.3985 13.4015C35.7036 13.4008 36.0087 13.4002 36.3137 13.3997C36.7393 13.3988 37.1649 13.3971 37.5905 13.3951C37.7176 13.395 37.8447 13.3949 37.9756 13.3947C38.0911 13.394 38.2066 13.3933 38.3256 13.3926C38.4766 13.392 38.4766 13.392 38.6307 13.3914C38.8851 13.3901 38.8851 13.3901 39.1251 13.25C39.1664 11.105 39.2076 8.96001 39.2501 6.75001C38.3 6.75871 38.3 6.75871 37.3307 6.76758C36.9291 6.77014 36.5275 6.77255 36.1259 6.77442C35.4886 6.77741 34.8514 6.78094 34.2141 6.78773C33.7002 6.79316 33.1864 6.79615 32.6726 6.79744C32.4766 6.79837 32.2807 6.80017 32.0848 6.80287C31.8101 6.80651 31.5355 6.807 31.2608 6.80677C31.1045 6.80788 30.9482 6.80899 30.7872 6.81013C30.3006 6.73913 30.0947 6.59421 29.7501 6.25001C29.6671 6.00001 29.6671 6.00001 29.672 5.75001C29.6696 5.62626 29.6696 5.62626 29.6671 5.50001C29.8003 5.09908 30.0216 4.97422 30.3751 4.75001C30.7412 4.67772 31.1002 4.68163 31.4724 4.68531C31.5817 4.68443 31.6909 4.68356 31.8034 4.68265C32.164 4.68046 32.5244 4.68191 32.8849 4.6836C33.1363 4.68326 33.3878 4.68278 33.6392 4.68215C34.1663 4.68141 34.6933 4.68248 35.2204 4.68482C35.8939 4.68766 36.5673 4.68603 37.2408 4.68303C37.7603 4.68122 38.2797 4.68181 38.7992 4.6831C39.0473 4.68343 39.2955 4.68303 39.5437 4.68186C39.8919 4.68058 40.24 4.68254 40.5882 4.68531C40.6895 4.6843 40.7908 4.68328 40.8952 4.68224C41.7154 4.69424 42.4787 4.89892 43.1045 5.45311C43.5909 5.96817 43.8459 6.54996 44.0885 7.20704C44.1296 7.31382 44.1707 7.42061 44.213 7.53063C44.3523 7.89471 44.4888 8.25979 44.6251 8.62501C44.7303 8.90335 44.8355 9.18167 44.9408 9.45997C45.3129 10.4465 45.6808 11.4346 46.0487 12.4228C46.2488 12.9604 46.4494 13.4978 46.65 14.0352C46.7011 14.1727 46.7522 14.3102 46.8048 14.4519C46.9511 14.8438 47.1004 15.2344 47.2501 15.625C47.3011 15.7633 47.352 15.9017 47.4045 16.0442C47.4562 16.1784 47.5078 16.3126 47.5611 16.4509C47.6291 16.6317 47.6291 16.6317 47.6985 16.8162C47.9123 17.1899 48.1266 17.2974 48.5001 17.5C49.0733 18.2436 49.0729 18.9034 49.0548 19.8203C49.0557 19.9472 49.0566 20.0741 49.0575 20.2048C49.0517 20.8927 49.0262 21.4164 48.6251 22C48.4692 22.1243 48.4692 22.1243 48.3101 22.2511C47.8674 22.7851 47.8675 23.2559 47.8175 23.9325C47.7994 24.1322 47.7994 24.1322 47.7809 24.336C47.741 24.7826 47.7051 25.2295 47.6692 25.6765C47.6415 25.9967 47.6135 26.3168 47.5852 26.6369C47.5247 27.3266 47.4663 28.0165 47.4093 28.7066C47.3266 29.7061 47.2408 30.7052 47.1541 31.7044C47.0134 33.3278 46.8751 34.9514 46.7384 36.5752C46.606 38.1484 46.4727 39.7215 46.338 41.2944C46.3297 41.3912 46.3214 41.4879 46.3129 41.5876C46.2223 42.6452 46.1316 43.7028 46.0407 44.7605C46.0166 45.0416 45.9924 45.3228 45.9683 45.604C45.9523 45.7895 45.9364 45.9749 45.9205 46.1604C45.8194 47.3367 45.7192 48.5132 45.62 49.6897C45.563 50.3658 45.5054 51.0419 45.4479 51.718C45.4214 52.0305 45.3951 52.3431 45.369 52.6557C44.9617 57.5323 44.9617 57.5323 43.6862 58.6821C42.6114 59.3486 41.4769 59.3037 40.2584 59.2985C40.0581 59.299 39.8578 59.2997 39.6575 59.3005C39.1162 59.3022 38.5749 59.3016 38.0336 59.3004C37.4656 59.2994 36.8975 59.3003 36.3295 59.3009C35.3758 59.3016 34.4222 59.3007 33.4685 59.2989C32.3679 59.2969 31.2672 59.2975 30.1666 59.2996C29.2195 59.3013 28.2725 59.3015 27.3254 59.3005C26.7607 59.3 26.196 59.2999 25.6312 59.3011C25.1001 59.3022 24.5691 59.3014 24.038 59.2993C23.8438 59.2988 23.6495 59.2989 23.4553 59.2998C22.0595 59.3052 20.8968 59.2518 19.8405 58.2417C18.5217 56.7615 18.75 54.0609 18.5967 52.2C18.5698 51.8788 18.5429 51.5575 18.5159 51.2362C18.4655 50.636 18.4153 50.0357 18.3652 49.4354C18.267 48.2564 18.1671 47.0776 18.0666 45.8988C18.0507 45.7127 18.0348 45.5265 18.019 45.3404C17.9869 44.9638 17.9548 44.5873 17.9226 44.2107C17.8403 43.2455 17.7581 42.2803 17.676 41.315C17.6678 41.2183 17.6596 41.1215 17.6511 41.0218C17.5176 39.4514 17.3866 37.8808 17.2564 36.3101C17.1224 34.6944 16.9854 33.079 16.8458 31.4638C16.7599 30.469 16.6763 29.4741 16.5958 28.4788C16.534 27.7166 16.468 26.9548 16.4004 26.193C16.3734 25.8809 16.3478 25.5687 16.3235 25.2564C16.2902 24.8297 16.2521 24.4038 16.2128 23.9776C16.2044 23.8542 16.1959 23.7308 16.1872 23.6037C16.0955 22.6943 15.7612 22.2593 15.1251 21.625C14.8713 21.1173 14.966 20.4721 14.9611 19.9141C14.9575 19.7794 14.9538 19.6448 14.9501 19.5061C14.9435 18.6839 14.9852 18.1553 15.5001 17.5C15.6001 17.4514 15.7001 17.4028 15.8031 17.3528C16.2578 17.0312 16.3807 16.6216 16.5646 16.1162C16.6057 16.0085 16.6469 15.9008 16.6893 15.7898C16.8367 15.4023 16.9808 15.0136 17.1251 14.625C17.2466 14.3029 17.3683 13.9808 17.4901 13.6588C17.7608 12.9426 18.0305 12.2261 18.2995 11.5093C18.3338 11.4177 18.3682 11.3261 18.4036 11.2318C18.5802 10.761 18.7565 10.2901 18.9322 9.81904C19.1052 9.35549 19.2791 8.89229 19.4536 8.42932C19.5191 8.25493 19.5843 8.08041 19.6491 7.90576C19.7393 7.66277 19.8307 7.42025 19.9224 7.1778C19.9738 7.04045 20.0252 6.90309 20.0781 6.76158C20.4528 5.91962 20.9609 5.2292 21.8294 4.86005C22.3524 4.72325 22.8339 4.70949 23.3722 4.70801ZM41.2501 6.75001C41.2497 6.83576 41.2492 6.92151 41.2488 7.00986C41.2435 7.90417 41.2349 8.7984 41.2242 9.69266C41.2204 10.0262 41.218 10.3597 41.2163 10.6933C41.2136 11.1733 41.2078 11.6533 41.2013 12.1333C41.2012 12.2819 41.201 12.4305 41.2008 12.5836C41.1862 13.4151 41.128 13.952 40.6251 14.625C40.0992 15.1124 39.7149 15.2652 39.0061 15.2676C38.8145 15.2686 38.8145 15.2686 38.619 15.2697C38.479 15.2699 38.3389 15.27 38.1946 15.2701C38.047 15.2708 37.8994 15.2714 37.7473 15.272C37.3423 15.2735 36.9374 15.2745 36.5324 15.275C36.2793 15.2754 36.0261 15.2759 35.773 15.2765C34.9806 15.2782 34.1883 15.2794 33.3959 15.2799C32.4819 15.2804 31.5679 15.2826 30.6539 15.2862C29.947 15.2889 29.2401 15.2902 28.5332 15.2904C28.1112 15.2905 27.6892 15.2912 27.2672 15.2935C26.7962 15.2956 26.3253 15.2954 25.8542 15.2946C25.7149 15.2957 25.5756 15.2969 25.4321 15.2981C24.5196 15.2931 23.9493 15.1992 23.2814 14.5313C22.683 13.667 22.7093 12.7892 22.6984 11.77C22.696 11.6298 22.6935 11.4895 22.691 11.345C22.6836 10.8993 22.6778 10.4536 22.672 10.0078C22.6672 9.70468 22.6624 9.40153 22.6574 9.09839C22.6454 8.35728 22.6348 7.61615 22.6251 6.87501C22.2656 7.00195 22.144 7.08982 21.9609 7.43109C21.9132 7.55996 21.8655 7.68882 21.8164 7.8216C21.7613 7.96778 21.7062 8.11397 21.6494 8.26458C21.5908 8.4254 21.5323 8.58623 21.4738 8.74708C21.412 8.91294 21.35 9.07874 21.2879 9.24449C21.1243 9.68251 20.9628 10.1213 20.8018 10.5603C20.6403 10.9993 20.4769 11.4376 20.3136 11.876C20.0658 12.5419 19.8191 13.2083 19.5735 13.8751C19.3818 14.3951 19.1889 14.9144 18.9922 15.4325C18.9561 15.5276 18.92 15.6227 18.8828 15.7208C18.7933 15.956 18.7032 16.191 18.6131 16.426C18.4864 16.7322 18.4864 16.7322 18.5001 17C27.4101 17 36.3201 17 45.5001 17C45.217 16.0391 45.217 16.0391 44.8919 15.099C44.8292 14.9316 44.8292 14.9316 44.7653 14.7609C44.7211 14.6444 44.677 14.5278 44.6315 14.4077C44.5844 14.2825 44.5374 14.1574 44.4889 14.0284C44.3394 13.6308 44.1893 13.2333 44.0392 12.8359C43.8921 12.4449 43.745 12.0538 43.598 11.6627C43.5008 11.405 43.4033 11.1474 43.3055 10.89C43.0649 10.257 42.8286 9.62308 42.6014 8.98517C42.5576 8.86429 42.5137 8.74341 42.4685 8.61887C42.3861 8.39129 42.3053 8.16312 42.2264 7.93429C42.1893 7.833 42.1522 7.73171 42.114 7.62736C42.0828 7.53899 42.0516 7.45062 42.0194 7.35957C41.8236 7.04115 41.5764 6.92118 41.2501 6.75001ZM17.0001 19C17.0001 19.5775 17.0001 20.155 17.0001 20.75C26.9001 20.75 36.8001 20.75 47.0001 20.75C47.0001 20.1725 47.0001 19.595 47.0001 19C37.1001 19 27.2001 19 17.0001 19ZM18.1251 22.75C18.1206 23.6304 18.1206 23.6304 18.1674 24.4999C18.1768 24.6107 18.1862 24.7215 18.196 24.8356C18.2065 24.9535 18.217 25.0715 18.2279 25.193C18.2389 25.3212 18.25 25.4494 18.2614 25.5815C18.2983 26.0087 18.336 26.4359 18.3736 26.863C18.4003 27.1703 18.427 27.4775 18.4537 27.7848C18.5185 28.5313 18.5839 29.2777 18.6494 30.0242C18.7028 30.6312 18.7559 31.2382 18.8089 31.8453C18.8165 31.9318 18.824 32.0184 18.8318 32.1076C18.8472 32.2835 18.8625 32.4594 18.8779 32.6352C19.0218 34.2827 19.1663 35.9301 19.3111 37.5775C19.4433 39.0828 19.5747 40.5882 19.7058 42.0936C19.8406 43.6415 19.9759 45.1894 20.1118 46.7372C20.188 47.6054 20.264 48.4735 20.3394 49.3417C20.4104 50.1581 20.4821 50.9745 20.5543 51.7909C20.5806 52.09 20.6067 52.3893 20.6326 52.6885C20.668 53.0978 20.7042 53.507 20.7407 53.9161C20.7506 54.0338 20.7606 54.1515 20.7709 54.2727C20.8528 55.6691 20.8528 55.6691 21.4376 56.8828C21.9217 57.258 22.1751 57.2662 22.7844 57.2684C22.9065 57.2691 22.9065 57.2691 23.031 57.2698C23.3048 57.2712 23.5787 57.2717 23.8526 57.2721C24.0484 57.2729 24.2443 57.2737 24.4401 57.2746C24.9732 57.2768 25.5063 57.2781 26.0394 57.2791C26.3723 57.2798 26.7053 57.2805 27.0383 57.2813C28.0799 57.2837 29.1214 57.2855 30.163 57.2865C31.3657 57.2878 32.5684 57.291 33.7712 57.2961C34.7005 57.2999 35.6298 57.3017 36.5591 57.3021C37.1143 57.3024 37.6694 57.3035 38.2246 57.3067C38.747 57.3096 39.2694 57.3101 39.7919 57.3088C39.9834 57.3088 40.175 57.3096 40.3666 57.3113C40.6286 57.3135 40.8904 57.3126 41.1524 57.311C41.2988 57.3113 41.4453 57.3116 41.5962 57.3119C42.1511 57.2269 42.5707 56.9845 42.9145 56.5352C43.0473 56.0929 43.0818 55.6454 43.1203 55.1874C43.1307 55.0745 43.141 54.9617 43.1516 54.8454C43.1872 54.4525 43.2214 54.0595 43.2555 53.6665C43.2817 53.3737 43.308 53.0809 43.3343 52.7881C43.396 52.0998 43.457 51.4115 43.5175 50.7232C43.5946 49.8458 43.6723 48.9685 43.7504 48.0913C43.7613 47.9683 43.7723 47.8452 43.7836 47.7184C43.8063 47.4631 43.8291 47.2079 43.8518 46.9526C44.0883 44.2956 44.3229 41.6385 44.5565 38.9813C44.5822 38.689 44.6079 38.3967 44.6336 38.1044C44.6464 37.9592 44.6591 37.8141 44.6723 37.6645C44.7771 36.4724 44.8824 35.2804 44.9879 34.0883C45.0907 32.9257 45.1931 31.763 45.2952 30.6003C45.3558 29.9113 45.4165 29.2223 45.4776 28.5333C45.5345 27.8907 45.591 27.248 45.6472 26.6053C45.6678 26.3705 45.6885 26.1358 45.7095 25.901C45.7381 25.5799 45.7661 25.2588 45.7939 24.9377C45.8064 24.8 45.8064 24.8 45.8192 24.6594C45.8741 24.0158 45.8751 23.4019 45.8751 22.75C36.7176 22.75 27.5601 22.75 18.1251 22.75Z" fill="#F5F5F5"/>
<path d="M8.28387 4.72588C8.38779 4.72486 8.49171 4.72384 8.59878 4.72278C8.94206 4.71968 9.28534 4.71761 9.62863 4.71581C9.80467 4.71481 9.80467 4.71481 9.98427 4.71379C10.605 4.71046 11.2257 4.70803 11.8465 4.70623C12.3602 4.70456 12.8739 4.70107 13.3876 4.69597C14.0082 4.68982 14.6288 4.68671 15.2494 4.68582C15.4858 4.68498 15.7222 4.68308 15.9586 4.68009C16.2892 4.67614 16.6197 4.67612 16.9504 4.67705C17.0479 4.675 17.1453 4.67295 17.2458 4.67084C17.7471 4.67659 17.9746 4.72984 18.3734 5.04361C18.6252 5.37499 18.6252 5.37499 18.7033 5.74999C18.5977 6.25695 18.3986 6.42532 18.0002 6.74999C17.6071 6.82515 17.6071 6.82515 17.1605 6.82094C17.0787 6.82103 16.9969 6.82112 16.9126 6.82122C16.644 6.82079 16.3757 6.81593 16.1071 6.81102C15.9203 6.80986 15.7334 6.80897 15.5465 6.80834C15.0559 6.80596 14.5655 6.79983 14.075 6.7929C13.4857 6.78537 12.8965 6.78251 12.3072 6.77887C11.4131 6.77282 10.5193 6.76084 9.62521 6.74999C9.66646 8.93624 9.70771 11.1225 9.75021 13.375C11.4199 13.4012 11.4199 13.4012 13.0897 13.4235C13.299 13.4275 13.5082 13.4317 13.7175 13.436C13.8262 13.4368 13.935 13.4376 14.047 13.4384C14.151 13.4409 14.255 13.4434 14.3622 13.4459C14.4524 13.4473 14.5426 13.4487 14.6355 13.4501C14.9461 13.5147 15.0562 13.628 15.2502 13.875C15.3906 14.3362 15.4174 14.5387 15.2033 14.9766C15.0002 15.25 15.0002 15.25 14.8752 15.375C14.7048 15.3905 14.5336 15.3976 14.3625 15.4011C14.2535 15.4035 14.1446 15.4059 14.0323 15.4084C13.5296 15.4156 13.027 15.4218 12.5243 15.4256C12.26 15.4283 11.9957 15.4326 11.7315 15.4384C11.3496 15.4469 10.9681 15.4502 10.5861 15.4526C10.4693 15.4561 10.3525 15.4596 10.2321 15.4632C9.35107 15.4604 8.79101 15.2009 8.12521 14.625C7.69232 14.0568 7.61123 13.5363 7.59954 12.8351C7.5958 12.6362 7.5958 12.6362 7.59199 12.4333C7.5899 12.2909 7.58781 12.1486 7.58566 12.0019C7.58306 11.8556 7.58046 11.7093 7.57779 11.5585C7.56962 11.0911 7.56225 10.6237 7.5549 10.1562C7.5495 9.83934 7.54405 9.52245 7.53854 9.20555C7.52516 8.42871 7.51243 7.65185 7.50021 6.87499C7.03209 7.50689 6.77145 8.16043 6.50314 8.89647C6.45687 9.02088 6.4106 9.14529 6.36293 9.27346C6.21507 9.67156 6.06853 10.0701 5.92208 10.4687C5.73069 10.9864 5.53878 11.504 5.34689 12.0215C5.27549 12.2145 5.27549 12.2145 5.20266 12.4114C4.64913 13.9046 4.07535 15.39 3.50021 16.875C3.61498 16.8757 3.72976 16.8765 3.84801 16.8772C4.92951 16.8844 6.01098 16.8935 7.09245 16.9045C7.64846 16.91 8.20444 16.9149 8.76046 16.9183C9.29703 16.9215 9.83355 16.9266 10.3701 16.9329C10.5748 16.935 10.7795 16.9364 10.9843 16.9372C11.271 16.9384 11.5576 16.9419 11.8443 16.9459C12.0891 16.948 12.0891 16.948 12.3389 16.9501C12.7729 17.0027 12.9517 17.0605 13.2502 17.375C13.3593 17.8036 13.4164 18.1116 13.2893 18.539C13.0791 18.8092 12.9489 18.8791 12.6252 19C12.2768 19.0226 11.9413 19.0316 11.5931 19.0284C11.4894 19.0284 11.3857 19.0284 11.2788 19.0285C10.9366 19.0283 10.5944 19.0264 10.2522 19.0244C10.0147 19.0239 9.77716 19.0236 9.53966 19.0233C8.91494 19.0224 8.29024 19.0199 7.66553 19.0172C7.02791 19.0146 6.39028 19.0135 5.75265 19.0122C4.50183 19.0095 3.25102 19.0052 2.00021 19C2.00021 19.5775 2.00021 20.155 2.00021 20.75C2.13378 20.7492 2.26734 20.7483 2.40496 20.7475C3.66303 20.7399 4.92109 20.7342 6.17918 20.7306C6.826 20.7286 7.47279 20.7259 8.11959 20.7217C8.74367 20.7176 9.36773 20.7154 9.99181 20.7144C10.23 20.7137 10.4683 20.7124 10.7065 20.7103C11.0399 20.7076 11.3732 20.7072 11.7066 20.7074C11.8054 20.7061 11.9041 20.7047 12.0058 20.7033C12.4069 20.7056 12.7009 20.7239 13.0586 20.9133C13.3619 21.2484 13.3597 21.559 13.3752 22C13.2791 22.3231 13.2014 22.4484 12.9237 22.6364C12.5118 22.7931 12.1192 22.7828 11.6849 22.7784C11.544 22.7784 11.544 22.7784 11.4002 22.7785C11.0904 22.7783 10.7807 22.7764 10.4709 22.7744C10.2558 22.7739 10.0408 22.7736 9.82567 22.7733C9.26014 22.7724 8.69462 22.7699 8.12909 22.7672C7.55179 22.7646 6.97449 22.7635 6.39718 22.7622C5.26485 22.7595 4.13253 22.7552 3.00021 22.75C3.06208 22.8737 3.06208 22.8737 3.12521 23C3.15947 23.2757 3.18694 23.5522 3.21142 23.8289C3.21919 23.9151 3.22695 24.0013 3.23495 24.0901C3.26096 24.3802 3.28624 24.6705 3.31152 24.9608C3.32997 25.1684 3.34846 25.3759 3.36699 25.5835C3.41732 26.1489 3.46699 26.7144 3.5165 27.2798C3.55794 27.7525 3.59968 28.2252 3.64141 28.6978C3.73999 29.8146 3.83802 30.9314 3.93573 32.0482C4.03624 33.1971 4.13773 34.3459 4.23971 35.4947C4.32735 36.4825 4.41435 37.4703 4.50086 38.4582C4.55247 39.0474 4.60431 39.6366 4.65679 40.2258C4.70626 40.7815 4.75492 41.3373 4.80299 41.8932C4.82065 42.0958 4.83858 42.2984 4.85681 42.5009C4.94404 43.4716 5.01851 44.4424 5.04209 45.4169C5.04636 45.5656 5.05062 45.7142 5.05502 45.8673C5.00021 46.25 5.00021 46.25 4.77494 46.5481C4.3751 46.8419 4.10859 46.819 3.62521 46.75C3.26181 46.4727 3.14523 46.3101 3.00021 45.875C2.96554 45.5735 2.93614 45.2735 2.91093 44.9713C2.89879 44.8322 2.89879 44.8322 2.88639 44.6904C2.85929 44.3789 2.83285 44.0674 2.80639 43.7559C2.78712 43.533 2.7678 43.31 2.74844 43.087C2.70679 42.6064 2.66542 42.1257 2.62424 41.6451C2.5591 40.885 2.49318 40.125 2.4271 39.365C2.23932 37.2037 2.05261 35.0423 1.8667 32.8808C1.76404 31.6874 1.66073 30.4941 1.55671 29.3008C1.49091 28.5454 1.42592 27.7899 1.36154 27.0344C1.32128 26.564 1.28025 26.0938 1.239 25.6236C1.22004 25.4056 1.20139 25.1876 1.18308 24.9696C1.15802 24.6718 1.13183 24.3741 1.10536 24.0763C1.09839 23.9903 1.09142 23.9042 1.08424 23.8155C0.999748 22.8946 0.806656 22.379 0.12521 21.75C-0.144091 21.2114 -0.0340715 20.4978 -0.0388526 19.9062C-0.0424781 19.7586 -0.0461036 19.611 -0.049839 19.459C-0.0597387 18.1065 -0.0597387 18.1065 0.50021 17.5C0.92521 17.125 0.92521 17.125 1.25021 17.125C1.26681 17.0333 1.28342 16.9416 1.30053 16.8471C1.36856 16.5309 1.45636 16.2479 1.57016 15.9457C1.61001 15.8392 1.64986 15.7327 1.69092 15.623C1.75604 15.4511 1.75604 15.4511 1.82248 15.2759C1.86786 15.155 1.91324 15.0341 1.96 14.9095C2.10827 14.515 2.25729 14.1207 2.40646 13.7266C2.50905 13.4551 2.61164 13.1836 2.71423 12.9121C2.86931 12.5018 3.02445 12.0914 3.17983 11.6812C3.45456 10.9551 3.72643 10.2282 3.99309 9.49909C4.13576 9.10936 4.28002 8.72023 4.42454 8.33118C4.48981 8.15421 4.55434 7.97697 4.61805 7.79945C5.02687 6.66187 5.45742 5.73142 6.46115 5.0078C7.06012 4.7326 7.63307 4.72943 8.28387 4.72588Z" fill="#F5F5F5"/>
<path d="M47.0419 4.67308C47.1452 4.67238 47.2486 4.67169 47.355 4.67098C47.6959 4.6695 48.0366 4.67254 48.3774 4.67576C48.6152 4.67598 48.8529 4.67597 49.0906 4.67575C49.5888 4.67595 50.0869 4.67829 50.5851 4.68223C51.2219 4.68718 51.8586 4.68774 52.4954 4.6868C52.9864 4.68642 53.4775 4.68794 53.9685 4.69007C54.2032 4.69094 54.4378 4.69134 54.6725 4.69123C55.0016 4.69146 55.3305 4.69414 55.6596 4.69749C55.7555 4.69713 55.8515 4.69676 55.9503 4.69638C56.7956 4.70957 57.6104 4.8924 58.2198 5.51616C58.665 5.99866 58.8891 6.50394 59.1089 7.11619C59.1703 7.27799 59.1703 7.27799 59.2329 7.44306C59.3204 7.67465 59.4068 7.90665 59.4922 8.13901C59.6262 8.50326 59.7632 8.86627 59.9009 9.22911C60.1894 9.99024 60.4738 10.7528 60.7578 11.5156C60.9492 12.029 61.1408 12.5424 61.3325 13.0556C61.3783 13.1786 61.4242 13.3015 61.4714 13.4282C61.6896 14.012 61.9107 14.5944 62.1396 15.1742C62.1807 15.2783 62.2217 15.3824 62.264 15.4896C62.3407 15.683 62.4179 15.8761 62.4958 16.069C62.6432 16.4404 62.75 16.7214 62.75 17.125C62.8428 17.1533 62.9356 17.1817 63.0312 17.2109C63.5114 17.4401 63.7644 17.7787 64 18.25C64.0373 18.7805 64.0348 19.3121 64.0391 19.8437C64.0427 19.9913 64.0463 20.1389 64.05 20.291C64.06 21.6566 64.06 21.6566 63.5 22.25C63.3762 22.3325 63.2525 22.415 63.125 22.5C63.0353 22.8763 63.0353 22.8763 63 23.3437C62.9857 23.4779 62.9857 23.4779 62.9711 23.6149C62.903 24.2684 62.8509 24.9231 62.7983 25.5781C62.7766 25.8319 62.7545 26.0857 62.7323 26.3395C62.7181 26.5083 62.705 26.6772 62.6931 26.8461C62.676 27.087 62.6552 27.3277 62.6343 27.5683C62.6234 27.7086 62.6126 27.849 62.6014 27.9935C62.4717 28.4815 62.2625 28.6842 61.875 29C61.5 29.0781 61.5 29.0781 61.125 29C60.7656 28.7578 60.7656 28.7578 60.5 28.375C60.4379 27.3711 60.563 26.363 60.6534 25.3631C60.6799 25.068 60.7053 24.7729 60.7307 24.4778C60.7473 24.29 60.764 24.1023 60.7808 23.9145C60.7883 23.8264 60.7959 23.7382 60.8037 23.6474C60.8606 23.0287 60.8606 23.0287 61 22.75C60.8805 22.7505 60.7611 22.7511 60.638 22.7517C59.5123 22.7567 58.3867 22.7605 57.2611 22.7629C56.6824 22.7642 56.1037 22.766 55.525 22.7688C54.9665 22.7716 54.4081 22.7731 53.8497 22.7737C53.6366 22.7742 53.4235 22.7751 53.2104 22.7764C52.912 22.7782 52.6137 22.7785 52.3153 22.7784C52.2271 22.7793 52.1389 22.7802 52.048 22.7811C51.5952 22.7792 51.2553 22.7574 50.875 22.5C50.6148 22.1654 50.6255 21.9853 50.6406 21.5547C50.75 21.125 50.75 21.125 50.9416 20.9133C51.3841 20.679 51.8052 20.7007 52.2936 20.7074C52.3985 20.7074 52.5034 20.7073 52.6115 20.7072C52.9578 20.7075 53.3041 20.7104 53.6504 20.7134C53.8907 20.7141 54.131 20.7146 54.3713 20.715C55.0034 20.7164 55.6355 20.7201 56.2676 20.7242C56.9128 20.7281 57.558 20.7298 58.2031 20.7317C59.4688 20.7357 60.7344 20.7421 62 20.75C62 20.1725 62 19.595 62 19C61.868 19.0005 61.736 19.0011 61.6 19.0017C60.3566 19.0067 59.1133 19.0105 57.8699 19.0129C57.2307 19.0142 56.5914 19.016 55.9522 19.0188C55.3354 19.0216 54.7187 19.0231 54.1019 19.0237C53.8664 19.0242 53.631 19.0251 53.3956 19.0264C53.0661 19.0282 52.7366 19.0285 52.4071 19.0284C52.3096 19.0293 52.212 19.0302 52.1115 19.0311C51.6406 19.0293 51.269 19.0246 50.875 18.75C50.6148 18.4154 50.6255 18.2353 50.6406 17.8047C50.75 17.375 50.75 17.375 50.9502 17.164C51.3635 16.9379 51.6856 16.9499 52.1559 16.9459C52.2462 16.9447 52.3365 16.9434 52.4295 16.9421C52.7271 16.9383 53.0246 16.9372 53.3223 16.936C53.5289 16.9339 53.7356 16.9316 53.9423 16.9292C54.4856 16.9233 55.0289 16.9196 55.5723 16.9163C56.127 16.9126 56.6816 16.9067 57.2363 16.9011C58.3242 16.8904 59.4121 16.8819 60.5 16.875C59.8584 15.1846 59.2163 13.4944 58.5733 11.8045C58.3131 11.1205 58.0534 10.4364 57.7955 9.75156C57.6558 9.38105 57.5153 9.01086 57.375 8.64061C57.3278 8.51422 57.2806 8.38783 57.232 8.25761C57.189 8.14456 57.1459 8.0315 57.1016 7.91502C57.0663 7.82126 57.031 7.7275 56.9946 7.6309C56.8618 7.34683 56.6907 7.12292 56.5 6.87498C56.4998 6.95521 56.4996 7.03543 56.4995 7.11808C56.497 7.95772 56.4902 8.79724 56.4809 9.63682C56.478 9.9496 56.4762 10.2624 56.4756 10.5752C56.4744 11.0264 56.4692 11.4775 56.4634 11.9287C56.4639 12.0672 56.4644 12.2056 56.4649 12.3483C56.4462 13.3577 56.2777 14.2324 55.5324 14.9634C54.8719 15.4398 54.2275 15.4631 53.4351 15.4492C53.3125 15.4492 53.19 15.4492 53.0637 15.4492C52.8064 15.4485 52.5492 15.4464 52.2919 15.4427C51.8974 15.4375 51.5032 15.4376 51.1086 15.4385C50.8581 15.4371 50.6075 15.4355 50.3569 15.4336C50.239 15.4336 50.121 15.4335 49.9995 15.4335C49.8901 15.4315 49.7807 15.4295 49.6681 15.4275C49.572 15.4264 49.4759 15.4254 49.3769 15.4243C49.0569 15.3617 48.9479 15.2551 48.75 15C48.6096 14.5387 48.5828 14.3362 48.7969 13.8984C49 13.625 49 13.625 49.125 13.5C49.4718 13.483 49.816 13.4737 50.1631 13.4692C50.3774 13.4651 50.5918 13.461 50.8062 13.4568C51.1455 13.4508 51.4848 13.4453 51.8242 13.4404C52.1507 13.4354 52.4772 13.429 52.8037 13.4223C52.9053 13.4213 53.0069 13.4202 53.1115 13.4192C53.5948 13.4085 53.8389 13.3991 54.25 13.125C54.3095 12.843 54.3095 12.843 54.304 12.5114C54.3065 12.3838 54.309 12.2562 54.3115 12.1247C54.3123 11.9865 54.3131 11.8484 54.314 11.706C54.3173 11.4943 54.3173 11.4943 54.3208 11.2783C54.3276 10.8262 54.3318 10.374 54.3359 9.92186C54.3401 9.61587 54.3444 9.30988 54.3489 9.00389C54.3595 8.2526 54.3681 7.50131 54.375 6.74998C54.2715 6.75137 54.1679 6.75276 54.0613 6.75419C53.0847 6.76672 52.1081 6.77623 51.1315 6.78236C50.6294 6.78562 50.1274 6.79004 49.6253 6.79713C49.1407 6.80393 48.656 6.80766 48.1713 6.80928C47.9866 6.81043 47.8018 6.81269 47.6171 6.81606C47.3579 6.82061 47.099 6.82122 46.8398 6.82094C46.6924 6.82232 46.545 6.82371 46.3931 6.82514C45.8811 6.72725 45.6961 6.52681 45.375 6.12498C45.2969 5.74998 45.2969 5.74998 45.375 5.37498C45.8601 4.73817 46.2791 4.66 47.0419 4.67308Z" fill="#F5F5F5"/>
<path d="M61.75 31.125C62.0083 31.3889 62.115 31.5557 62.1679 31.923C62.1399 33.0765 62.0484 34.2224 61.9474 35.3713C61.9282 35.5945 61.9091 35.8177 61.8901 36.0408C61.8385 36.6429 61.7861 37.2449 61.7335 37.8468C61.6895 38.351 61.6458 38.8551 61.6022 39.3593C61.4991 40.5492 61.3953 41.7391 61.2911 42.929C61.1839 44.1533 61.0781 45.3778 60.9729 46.6022C60.8822 47.6568 60.7907 48.7113 60.6983 49.7658C60.6434 50.3941 60.5887 51.0225 60.535 51.6509C60.4845 52.242 60.4328 52.833 60.3802 53.4239C60.3612 53.6397 60.3426 53.8555 60.3245 54.0714C60.0496 57.3317 60.0496 57.3317 59.2422 58.1875C59.1557 58.2842 59.0691 58.3809 58.98 58.4805C57.7598 59.407 56.4341 59.322 54.9736 59.312C54.7412 59.312 54.5088 59.3122 54.2763 59.3126C53.7916 59.3127 53.3068 59.3112 52.8221 59.3083C52.2008 59.3048 51.5797 59.3051 50.9584 59.3067C50.4795 59.3076 50.0006 59.3066 49.5217 59.3051C49.2925 59.3045 49.0634 59.3044 48.8342 59.3049C48.5147 59.3053 48.1953 59.3032 47.8758 59.3005C47.7342 59.3014 47.7342 59.3014 47.5897 59.3022C47.1986 59.2967 46.917 59.2726 46.5698 59.0857C46.2574 58.7478 46.2578 58.4497 46.25 58C46.4182 57.6316 46.5107 57.4322 46.875 57.25C47.192 57.2367 47.5058 57.2307 47.8229 57.2303C47.9207 57.2297 48.0185 57.229 48.1192 57.2284C48.332 57.227 48.5447 57.226 48.7574 57.2251C49.0942 57.2236 49.431 57.2212 49.7677 57.2185C50.7254 57.2108 51.683 57.204 52.6407 57.1998C53.2262 57.1972 53.8116 57.1928 54.3971 57.1872C54.6202 57.1855 54.8433 57.1844 55.0665 57.184C55.3789 57.1834 55.6912 57.1805 56.0036 57.1771C56.1416 57.1776 56.1416 57.1776 56.2825 57.1782C56.8343 57.1693 57.1876 57.0917 57.625 56.75C57.9212 56.3057 57.942 56.0237 58.0026 55.4951C58.018 55.3625 58.018 55.3625 58.0337 55.2272C58.1524 54.1796 58.2432 53.1294 58.333 52.079C58.3523 51.8566 58.3716 51.6342 58.391 51.4118C58.4323 50.9375 58.4733 50.4631 58.5142 49.9888C58.5789 49.2386 58.6443 48.4885 58.7098 47.7384C58.8959 45.6071 59.0813 43.4758 59.2654 41.3443C59.3674 40.1637 59.4701 38.9831 59.5736 37.8026C59.6389 37.0568 59.7034 36.311 59.7672 35.5651C59.807 35.1024 59.8476 34.6399 59.8885 34.1773C59.9073 33.9627 59.9257 33.748 59.9438 33.5333C59.9685 33.2407 59.9944 32.9481 60.0207 32.6556C60.0349 32.4918 60.0491 32.328 60.0637 32.1593C60.1338 31.6912 60.2075 31.3803 60.5859 31.0859C61.0134 30.9589 61.3214 31.0159 61.75 31.125Z" fill="#F5F5F5"/>
<path d="M4.74983 48.75C5.14367 48.9987 5.34265 49.1409 5.47624 49.5939C5.48709 49.7249 5.49793 49.8558 5.50911 49.9907C5.52274 50.1381 5.53636 50.2854 5.5504 50.4372C5.56207 50.5946 5.57374 50.7519 5.58577 50.9141C5.60727 51.1559 5.60727 51.1559 5.6292 51.4027C5.67227 51.8932 5.7115 52.384 5.74983 52.875C5.78337 53.2882 5.81733 53.7013 5.85204 54.1144C5.87189 54.3544 5.89065 54.5944 5.90813 54.8346C5.9775 55.9084 5.9775 55.9084 6.42952 56.8594C6.89737 57.1962 7.4146 57.1439 7.96391 57.1447C8.11092 57.1457 8.11092 57.1457 8.2609 57.1466C8.4737 57.148 8.6865 57.1491 8.89931 57.1499C9.23606 57.1514 9.57279 57.1538 9.90953 57.1565C10.867 57.1642 11.8244 57.171 12.7818 57.1752C13.3675 57.1778 13.9531 57.1822 14.5387 57.1878C14.7619 57.1895 14.9851 57.1906 15.2083 57.191C15.5204 57.1916 15.8325 57.1945 16.1446 57.1979C16.283 57.1974 16.283 57.1974 16.4242 57.1968C16.8106 57.2031 17.0861 57.2291 17.4288 57.4144C17.7429 57.7518 17.7421 58.0496 17.7498 58.5C17.5816 58.8684 17.4891 59.0678 17.1248 59.25C16.7996 59.2642 16.4777 59.271 16.1524 59.2721C16.0018 59.2734 16.0018 59.2734 15.8481 59.2746C15.5145 59.2771 15.181 59.2785 14.8475 59.2798C14.7334 59.2803 14.6194 59.2808 14.5019 59.2813C13.8974 59.2839 13.293 59.2857 12.6886 59.2869C12.0662 59.2883 11.4439 59.2926 10.8216 59.2975C10.3416 59.3008 9.86163 59.3019 9.38161 59.3023C9.15237 59.3029 8.92314 59.3044 8.69391 59.3067C6.00463 59.3323 6.00463 59.3323 4.89046 58.3516C3.9879 57.3364 3.89445 56.2016 3.78462 54.899C3.75057 54.5084 3.71307 54.1183 3.67469 53.7281C3.6376 53.3492 3.6017 52.9703 3.56603 52.5912C3.54809 52.4018 3.52985 52.2124 3.5113 52.023C3.25855 49.4199 3.25855 49.4199 3.71077 48.8672C4.09358 48.712 4.3396 48.6914 4.74983 48.75Z" fill="#F5F5F5"/>
<path d="M26.2499 39.25C26.5857 39.4886 26.7166 39.6657 26.8671 40.0469C26.8775 40.4841 26.697 40.7387 26.4999 41.125C26.4476 41.5211 26.4476 41.5211 26.4999 41.875C26.8813 42.2564 27.3284 42.1698 27.8407 42.1768C28.0025 42.1804 28.0025 42.1804 28.1676 42.1841C28.5127 42.1916 28.8579 42.1974 29.203 42.2031C29.4368 42.2079 29.6705 42.2128 29.9042 42.2178C30.4778 42.2298 31.0513 42.2403 31.6249 42.25C31.5424 42.1263 31.4599 42.0025 31.3749 41.875C31.3148 41.4141 31.3463 41.1799 31.5624 40.7656C31.9132 40.4675 32.1352 40.4128 32.593 40.4254C33.1955 40.5849 33.5826 41.1027 33.9921 41.5469C34.0879 41.6462 34.1837 41.7454 34.2824 41.8477C35.1063 42.7088 35.1063 42.7088 35.164 43.2237C35.0907 43.9763 34.4905 44.459 33.9999 45C33.8679 45.1518 33.8679 45.1518 33.7333 45.3067C33.3442 45.7309 33.0945 45.9696 32.539 46.1485C32.0774 46.1223 31.8596 46.0357 31.4999 45.75C31.3267 45.4036 31.3514 45.1333 31.3749 44.75C31.4574 44.6263 31.5399 44.5025 31.6249 44.375C31.4711 44.3739 31.3173 44.3727 31.1588 44.3715C30.5848 44.3665 30.0108 44.3583 29.4368 44.3491C29.189 44.3456 28.9412 44.3429 28.6934 44.3411C28.3359 44.3385 27.9785 44.3326 27.621 44.3262C27.5113 44.326 27.4017 44.3259 27.2887 44.3257C26.4377 44.3058 25.7681 44.0961 25.122 43.5274C25.0662 43.4565 25.0105 43.3856 24.953 43.3125C24.8953 43.2416 24.8377 43.1707 24.7782 43.0977C24.2659 42.3536 24.2735 41.6354 24.3749 40.75C24.7182 39.7347 25.0902 39.128 26.2499 39.25Z" fill="#F5F5F5"/>
<path d="M33.6251 31.125C34.3279 31.68 34.9087 32.3672 35.0705 33.2656C34.9722 33.7675 34.7826 33.9488 34.3751 34.25C33.9033 34.3384 33.7052 34.2995 33.297 34.0468C33.0001 33.75 33.0001 33.75 32.7501 33.3515C32.5326 32.9829 32.5326 32.9829 32.1876 32.8593C31.8618 32.8436 31.8618 32.8436 31.6343 33.0819C31.3545 33.3983 31.1379 33.7206 30.9162 34.08C30.8332 34.2138 30.7502 34.3475 30.6647 34.4853C30.5795 34.6242 30.4942 34.7631 30.4064 34.9062C30.3184 35.0485 30.2303 35.1908 30.1422 35.333C29.9276 35.6799 29.7136 36.0273 29.5001 36.375C29.6395 36.4132 29.7789 36.4513 29.9225 36.4907C30.563 36.6807 30.563 36.6807 30.7501 37C30.8105 37.4741 30.8444 37.7522 30.547 38.1396C30.1835 38.4278 29.8986 38.4953 29.4455 38.5859C29.2369 38.6292 29.2369 38.6292 29.0241 38.6733C28.8924 38.6986 28.7608 38.7239 28.6251 38.75C28.5181 38.773 28.4112 38.7961 28.3009 38.8198C27.987 38.8774 27.6862 38.909 27.3673 38.9218C27.2628 38.928 27.1582 38.9341 27.0504 38.9404C26.7501 38.875 26.7501 38.875 26.4791 38.624C26.1977 38.1643 26.0807 37.7419 25.9689 37.2187C25.9376 37.077 25.9376 37.077 25.9057 36.9325C25.5628 35.3071 25.5628 35.3071 25.9455 34.6797C26.375 34.4263 26.6344 34.4225 27.1251 34.5C27.4655 34.8169 27.4655 34.8169 27.7501 35.125C27.803 35.0387 27.8559 34.9524 27.9104 34.8635C28.153 34.4684 28.3969 34.074 28.6408 33.6797C28.7239 33.5439 28.8071 33.4081 28.8927 33.2683C30.2374 31.0997 30.2374 31.0997 31.2355 30.8056C32.0633 30.6315 32.887 30.6987 33.6251 31.125Z" fill="#F5F5F5"/>
<path d="M37.2342 34.7266C37.3392 34.7473 37.4443 34.768 37.5525 34.7893C37.6534 34.8107 37.7543 34.832 37.8582 34.854C37.9486 34.873 38.0389 34.892 38.132 34.9115C38.4198 35.0164 38.5566 35.1395 38.7498 35.375C38.8787 35.7519 38.8886 35.9505 38.781 36.3359C38.6248 36.625 38.6248 36.625 38.2498 36.875C37.8513 36.8906 37.8513 36.8906 37.4998 36.875C37.5457 36.9518 37.5917 37.0285 37.639 37.1076C37.8509 37.4621 38.0621 37.817 38.2732 38.1719C38.3455 38.2926 38.4178 38.4133 38.4922 38.5376C39.9498 40.9916 39.9498 40.9916 39.7498 42.25C39.4855 43.15 38.8723 43.7119 38.0779 44.1719C37.4803 44.3142 36.8851 44.3606 36.3123 44.1172C36.0321 43.7553 36.0156 43.4511 35.9998 43C36.1178 42.6358 36.2003 42.5259 36.5432 42.3462C36.7112 42.287 36.7112 42.287 36.8826 42.2266C37.286 42.1042 37.286 42.1042 37.6248 41.875C37.6163 40.9828 37.1528 40.3626 36.6795 39.6328C36.6025 39.5116 36.5256 39.3903 36.4463 39.2654C36.2571 38.9677 36.0666 38.671 35.8748 38.375C35.7358 38.4966 35.7358 38.4966 35.594 38.6206C35.0882 38.9944 34.866 38.963 34.2498 38.875C33.9295 38.6406 33.9295 38.6406 33.7498 38.25C33.6912 37.4823 33.9294 36.6971 34.1013 35.9531C34.1204 35.8669 34.1395 35.7806 34.1592 35.6917C34.5718 34.0263 35.8858 34.4341 37.2342 34.7266Z" fill="#F5F5F5"/>
</g>
<defs>
<clipPath id="clip0_258_2945">
<rect width="64" height="64" fill="white"/>
</clipPath>
</defs>
</svg>
