<svg width="19" height="18" viewBox="0 0 19 18" fill="none" xmlns="http://www.w3.org/2000/svg">
<path d="M17.9426 16.3906C16.6933 14.2307 14.768 12.682 12.5211 11.9478C13.6325 11.2862 14.496 10.2781 14.979 9.07819C15.4619 7.87834 15.5377 6.55311 15.1946 5.30604C14.8515 4.05896 14.1085 2.95899 13.0798 2.17504C12.051 1.3911 10.7933 0.966522 9.49993 0.966522C8.20652 0.966522 6.94887 1.3911 5.92011 2.17504C4.89135 2.95899 4.14837 4.05896 3.80527 5.30604C3.46217 6.55311 3.53792 7.87834 4.02089 9.07819C4.50386 10.2781 5.36733 11.2862 6.47872 11.9478C4.23188 12.6812 2.30661 14.2299 1.05728 16.3906C1.01146 16.4653 0.981072 16.5485 0.967902 16.6351C0.954732 16.7217 0.959049 16.8101 0.980597 16.8951C1.00214 16.98 1.04049 17.0598 1.09336 17.1297C1.14624 17.1996 1.21258 17.2581 1.28846 17.302C1.36435 17.3458 1.44824 17.374 1.5352 17.3849C1.62215 17.3958 1.71041 17.3891 1.79475 17.3654C1.8791 17.3416 1.95783 17.3011 2.0263 17.2464C2.09477 17.1917 2.15159 17.1239 2.19341 17.0469C3.73888 14.3759 6.47052 12.7813 9.49993 12.7813C12.5293 12.7813 15.261 14.3759 16.8065 17.0469C16.8483 17.1239 16.9051 17.1917 16.9736 17.2464C17.042 17.3011 17.1208 17.3416 17.2051 17.3654C17.2895 17.3891 17.3777 17.3958 17.4647 17.3849C17.5516 17.374 17.6355 17.3458 17.7114 17.302C17.7873 17.2581 17.8536 17.1996 17.9065 17.1297C17.9594 17.0598 17.9977 16.98 18.0193 16.8951C18.0408 16.8101 18.0451 16.7217 18.032 16.6351C18.0188 16.5485 17.9884 16.4653 17.9426 16.3906ZM4.90618 6.875C4.90618 5.96645 5.1756 5.07829 5.68037 4.32285C6.18514 3.56742 6.90258 2.97862 7.74198 2.63093C8.58138 2.28324 9.50503 2.19227 10.3961 2.36952C11.2872 2.54677 12.1058 2.98428 12.7482 3.62673C13.3906 4.26918 13.8282 5.08771 14.0054 5.97881C14.1827 6.86991 14.0917 7.79356 13.744 8.63296C13.3963 9.47235 12.8075 10.1898 12.0521 10.6946C11.2966 11.1993 10.4085 11.4688 9.49993 11.4688C8.28199 11.4675 7.11431 10.9831 6.2531 10.1218C5.39189 9.26062 4.90748 8.09294 4.90618 6.875Z" fill="#222427"/>
</svg>
